<?xml version='1.0' encoding='iso-8859-1'?>
<svg version="1.1" xmlns="http://www.w3.org/2000/svg" viewBox="0 0 32.009 32.009" xmlns:xlink="http://www.w3.org/1999/xlink" enable-background="new 0 0 32.009 32.009">
  <g>
    <g>
      <path d="m30,4.004h-28c-1.105,0-2,0.895-2,2v13.476c0,0.015 0,0.029 0,0.044v6.481c0,1.105 0.895,2 2,2h28c1.105,0 2-0.895 2-2v-2.967c0-0.015 0-0.029 0-0.044v-16.99c0-1.104-0.895-2-2-2zm0,22h-28v-6.113l6.491-6.491 9.318,9.318c0.388,0.388 1.017,0.388 1.404,0 0.388-0.388 0.388-1.017 0-1.404l-2.088-2.088 4.346-4.346 8.529,8.529v2.595zm0-5.404l-7.707-7.707c-0.029-0.039-0.044-0.084-0.079-0.119-0.199-0.199-0.462-0.285-0.722-0.274-0.255-0.001-0.511,0.095-0.706,0.29-0.045,0.045-0.066,0.101-0.1,0.151l-4.922,4.922-6.55-6.55c-0.007-0.007-0.009-0.017-0.016-0.023-0.195-0.195-0.45-0.291-0.705-0.29-0.255,0-0.511,0.096-0.706,0.291-0.008,0.008-0.011,0.019-0.018,0.028l-5.769,5.768v-11.083h28v14.596zm-14.5-6.596c1.657,0 3-1.343 3-3s-1.343-3-3-3-3,1.343-3,3 1.343,3 3,3zm0-4c0.552,0 1,0.448 1,1s-0.448,1-1,1-1-0.448-1-1 0.448-1 1-1z"/>
    </g>
  </g>
</svg>
